# xmcd CD database file
# Copyright (C) 1993-1998 Ti Kan
# 
# Track frame offsets:
#     150
#     14884
#     31452
#     48927
#     68240
#     88057
#     115175
#     131315
#     148767
#     166327
#     192402
#     215180
# 
# Disc length: 3058 seconds
# 
# Revision: 1
# Processed by: cddbd v1.4b41PL1 Copyright (c) Steve Scherf et al.
# Submitted via: DiscPlay 4.0.4
# 
DISCID=b50bf00c
DTITLE=Countdown Dance Masters - Ultimate Dance Trax [CD7]
DYEAR=1900
DGENRE=
TTITLE0=I Wanna Be a Hippie
TTITLE1=Gereration of Love
TTITLE2=Friends
TTITLE3=Set Me Free
TTITLE4=Hardcore Vibes
TTITLE5=Let the beat control your body
TTITLE6=Texas Cowboys
TTITLE7=Hoochie Body
TTITLE8=Let me be your fantasy
TTITLE9=Move your ass
TTITLE10=Hyper Hyper
TTITLE11=U and Me
EXTD=
EXTT0=
EXTT1=
EXTT2=
EXTT3=
EXTT4=
EXTT5=
EXTT6=
EXTT7=
EXTT8=
EXTT9=
EXTT10=
EXTT11=
PLAYORDER=
